<?xml version="1.0" encoding="UTF-8" standalone="no"?>
<svg
   width="100%"
   height="100%"
   viewBox="0 0 500 95"
   version="1.1"
   xml:space="preserve"
   style="fill-rule:evenodd;clip-rule:evenodd;stroke-linejoin:round;stroke-miterlimit:1.41421;"
   id="svg396"
   sodipodi:docname="nav-eng.svg"
   inkscape:version="1.2.2 (b0a8486, 2022-12-01)"
   xmlns:inkscape="http://www.inkscape.org/namespaces/inkscape"
   xmlns:sodipodi="http://sodipodi.sourceforge.net/DTD/sodipodi-0.dtd"
   xmlns="http://www.w3.org/2000/svg"
   xmlns:svg="http://www.w3.org/2000/svg"
   xmlns:serif="http://www.serif.com/"><defs
     id="defs400" /><sodipodi:namedview
     id="namedview398"
     pagecolor="#ffffff"
     bordercolor="#000000"
     borderopacity="0.25"
     inkscape:showpageshadow="2"
     inkscape:pageopacity="0.0"
     inkscape:pagecheckerboard="0"
     inkscape:deskcolor="#d1d1d1"
     showgrid="false"
     inkscape:zoom="1.5559733"
     inkscape:cx="234.25852"
     inkscape:cy="-48.522683"
     inkscape:window-width="1440"
     inkscape:window-height="789"
     inkscape:window-x="0"
     inkscape:window-y="25"
     inkscape:window-maximized="1"
     inkscape:current-layer="g394" /><rect
     id="Artboard2"
     x="0"
     y="0"
     width="500"
     height="95"
     style="fill:none;" /><clipPath
     id="_clip1"><rect
       id="Artboard21"
       serif:id="Artboard2"
       x="0"
       y="0"
       width="500"
       height="95" /></clipPath><g
     clip-path="url(#_clip1)"
     id="g394"><g
       id="logo"><path
         d="M29.237,87.334c0,4.209 -3.419,7.623 -7.63,7.623c-4.214,0 -7.632,-3.414 -7.632,-7.623l0,-48.372c0,-4.209 3.418,-7.621 7.632,-7.621c4.211,0 7.63,3.412 7.63,7.621l0,48.372Z"
         style="fill:#2357a5;fill-rule:nonzero;"
         id="path237" /><path
         d="M86.76,31.344l-48.43,0c-4.214,0 -7.631,3.413 -7.631,7.621c0,4.213 3.417,7.622 7.631,7.622l16.585,0l0,40.792c0,4.205 3.414,7.621 7.629,7.621c4.213,0 7.633,-3.416 7.633,-7.621l0,-40.792l16.583,0c4.213,0 7.63,-3.409 7.63,-7.622c0,-4.208 -3.417,-7.621 -7.63,-7.621"
         style="fill:#2357a5;fill-rule:nonzero;"
         id="path239" /><path
         d="M101.895,25.5c8.422,13.882 -3.599,36.757 -27.038,52.762l0,0.004c1.609,-0.858 3.212,-1.767 4.809,-2.734c26.48,-16.027 40.682,-40.997 31.719,-55.773c-8.963,-14.779 -37.698,-13.767 -64.18,2.26c-1.601,0.969 -3.153,1.972 -4.663,3.002c25.057,-13.348 50.932,-13.401 59.353,0.479"
         style="fill:#f26721;fill-rule:nonzero;"
         id="path241" /><path
         d="M40.366,12.075c-0.615,-1.979 -2.722,-3.083 -4.703,-2.47c-1.702,0.529 -2.755,2.154 -2.629,3.856l-3.788,1.175c-1.235,-2.916 -4.125,-4.969 -7.498,-4.969c-2.034,0 -3.89,0.752 -5.317,1.984l-5.943,-5.92c0.902,-1.451 0.725,-3.379 -0.537,-4.635c-1.47,-1.464 -3.85,-1.461 -5.316,0.007c-1.463,1.468 -1.462,3.846 0.009,5.309c1.262,1.256 3.191,1.428 4.641,0.525l5.983,5.96c-1.035,1.362 -1.654,3.053 -1.654,4.896c0,1.122 0.224,2.187 0.638,3.161l-7.837,4.855c-1.205,-1.209 -3.126,-1.477 -4.639,-0.539c-1.761,1.093 -2.306,3.407 -1.21,5.169c1.093,1.761 3.41,2.303 5.172,1.21c1.516,-0.939 2.127,-2.778 1.577,-4.391l7.767,-4.816c1.47,2.098 3.906,3.474 6.666,3.474c4.492,0 8.133,-3.637 8.133,-8.123c0,-0.521 -0.055,-1.03 -0.148,-1.525l3.806,-1.179c0.865,1.471 2.653,2.214 4.355,1.685c1.982,-0.615 3.09,-2.718 2.472,-4.699"
         style="fill:#2357a5;fill-rule:nonzero;"
         id="path243" /></g><rect
       x="133.248"
       y="33.466"
       width="3.366"
       height="24.074"
       style="fill-rule:nonzero;"
       id="rect246" /><path
       d="M145.183,41.423c0.045,0.408 0.079,0.867 0.102,1.377c0.023,0.51 0.034,0.935 0.034,1.275l0.102,0c0.204,-0.431 0.482,-0.833 0.833,-1.207c0.351,-0.374 0.754,-0.703 1.207,-0.986c0.454,-0.284 0.952,-0.505 1.496,-0.663c0.544,-0.159 1.111,-0.238 1.7,-0.238c1.043,0 1.939,0.175 2.687,0.527c0.748,0.351 1.371,0.821 1.87,1.411c0.498,0.589 0.867,1.28 1.105,2.074c0.238,0.793 0.357,1.643 0.357,2.55l0,9.997l-3.196,0l0,-8.943c0,-0.657 -0.051,-1.281 -0.153,-1.87c-0.102,-0.589 -0.289,-1.111 -0.561,-1.564c-0.272,-0.454 -0.646,-0.816 -1.123,-1.088c-0.476,-0.272 -1.088,-0.408 -1.836,-0.408c-1.269,0 -2.306,0.481 -3.111,1.445c-0.805,0.963 -1.207,2.25 -1.207,3.859l0,8.569l-3.196,0l0,-12.649c0,-0.431 -0.012,-0.986 -0.034,-1.666c-0.023,-0.68 -0.057,-1.281 -0.102,-1.802l3.026,0Z"
       style="fill-rule:nonzero;"
       id="path248" /><path
       d="M169.665,44.041l-3.74,0l0,13.499l-3.197,0l0,-13.499l-3.196,0l0,-2.618l3.196,0l0,-3.367c0,-0.952 0.108,-1.83 0.323,-2.635c0.216,-0.805 0.567,-1.502 1.054,-2.091c0.488,-0.589 1.111,-1.054 1.871,-1.394c0.759,-0.34 1.683,-0.51 2.771,-0.51c0.771,0 1.439,0.079 2.006,0.238l-0.374,2.754c-0.249,-0.068 -0.499,-0.125 -0.748,-0.17c-0.249,-0.045 -0.533,-0.068 -0.85,-0.068c-0.612,0 -1.105,0.108 -1.479,0.323c-0.374,0.215 -0.663,0.504 -0.867,0.867c-0.204,0.363 -0.34,0.776 -0.408,1.241c-0.068,0.465 -0.102,0.947 -0.102,1.445l0,3.367l3.74,0l0,2.618Z"
       style="fill-rule:nonzero;"
       id="path250" /><path
       d="M188.944,49.447c0,1.247 -0.221,2.392 -0.663,3.434c-0.442,1.043 -1.054,1.944 -1.836,2.704c-0.782,0.759 -1.706,1.348 -2.771,1.768c-1.065,0.419 -2.21,0.629 -3.434,0.629c-1.224,0 -2.369,-0.21 -3.435,-0.629c-1.065,-0.42 -1.983,-1.009 -2.754,-1.768c-0.771,-0.76 -1.377,-1.661 -1.819,-2.704c-0.442,-1.042 -0.663,-2.187 -0.663,-3.434c0,-1.247 0.221,-2.386 0.663,-3.417c0.442,-1.032 1.048,-1.921 1.819,-2.669c0.771,-0.748 1.689,-1.332 2.754,-1.751c1.066,-0.42 2.211,-0.629 3.435,-0.629c1.224,0 2.369,0.209 3.434,0.629c1.065,0.419 1.989,1.003 2.771,1.751c0.782,0.748 1.394,1.637 1.836,2.669c0.442,1.031 0.663,2.17 0.663,3.417Zm-3.332,0c0,-0.771 -0.119,-1.507 -0.357,-2.21c-0.238,-0.703 -0.584,-1.32 -1.037,-1.853c-0.453,-0.533 -1.014,-0.958 -1.683,-1.275c-0.669,-0.318 -1.434,-0.476 -2.295,-0.476c-0.862,0 -1.627,0.158 -2.296,0.476c-0.668,0.317 -1.229,0.742 -1.683,1.275c-0.453,0.533 -0.799,1.15 -1.037,1.853c-0.238,0.703 -0.357,1.439 -0.357,2.21c0,0.771 0.119,1.508 0.357,2.21c0.238,0.703 0.584,1.326 1.037,1.87c0.454,0.545 1.015,0.975 1.683,1.293c0.669,0.317 1.434,0.476 2.296,0.476c0.861,0 1.626,-0.159 2.295,-0.476c0.669,-0.318 1.23,-0.748 1.683,-1.293c0.453,-0.544 0.799,-1.167 1.037,-1.87c0.238,-0.702 0.357,-1.439 0.357,-2.21Z"
       style="fill-rule:nonzero;"
       id="path252" /><path
       d="M193.365,44.891c0,-0.431 -0.012,-0.986 -0.034,-1.666c-0.023,-0.68 -0.057,-1.281 -0.102,-1.802l3.026,0c0.045,0.408 0.079,0.878 0.102,1.411c0.023,0.532 0.034,0.969 0.034,1.309l0.102,0c0.453,-0.952 1.116,-1.717 1.989,-2.295c0.873,-0.578 1.853,-0.867 2.941,-0.867c0.499,0 0.918,0.045 1.258,0.136l-0.136,2.958c-0.453,-0.114 -0.94,-0.17 -1.462,-0.17c-0.77,0 -1.439,0.141 -2.006,0.425c-0.567,0.283 -1.037,0.663 -1.411,1.139c-0.374,0.476 -0.652,1.026 -0.833,1.649c-0.181,0.623 -0.272,1.275 -0.272,1.955l0,8.467l-3.196,0l0,-12.649Z"
       style="fill-rule:nonzero;"
       id="path254" /><path
       d="M208.802,44.075c0.408,-0.862 1.06,-1.593 1.955,-2.193c0.895,-0.601 1.955,-0.901 3.179,-0.901c1.088,0 2.069,0.249 2.941,0.748c0.873,0.498 1.559,1.326 2.058,2.482c0.544,-1.043 1.303,-1.842 2.278,-2.397c0.975,-0.556 2.04,-0.833 3.196,-0.833c1.043,0 1.938,0.175 2.686,0.527c0.748,0.351 1.372,0.821 1.87,1.411c0.499,0.589 0.867,1.28 1.105,2.074c0.238,0.793 0.357,1.643 0.357,2.55l0,9.997l-3.196,0l0,-8.943c0,-0.657 -0.056,-1.281 -0.17,-1.87c-0.113,-0.589 -0.306,-1.111 -0.578,-1.564c-0.272,-0.454 -0.635,-0.816 -1.088,-1.088c-0.453,-0.272 -1.031,-0.408 -1.734,-0.408c-0.725,0 -1.349,0.153 -1.87,0.459c-0.522,0.306 -0.947,0.702 -1.275,1.19c-0.329,0.487 -0.567,1.037 -0.714,1.649c-0.148,0.612 -0.221,1.235 -0.221,1.87l0,8.705l-3.197,0l0,-9.589c0,-0.635 -0.056,-1.213 -0.17,-1.734c-0.113,-0.521 -0.306,-0.969 -0.578,-1.343c-0.272,-0.374 -0.623,-0.669 -1.054,-0.884c-0.43,-0.216 -0.963,-0.323 -1.598,-0.323c-1.179,0 -2.159,0.481 -2.941,1.445c-0.782,0.963 -1.173,2.25 -1.173,3.859l0,8.569l-3.196,0l0,-12.649c0,-0.431 -0.012,-0.986 -0.034,-1.666c-0.023,-0.68 -0.057,-1.281 -0.102,-1.802l3.026,0c0.045,0.408 0.079,0.867 0.102,1.377c0.022,0.51 0.034,0.935 0.034,1.275l0.102,0Z"
       style="fill-rule:nonzero;"
       id="path256" /><path
       d="M245.865,47.101c0,-1.201 -0.363,-2.091 -1.088,-2.669c-0.726,-0.578 -1.689,-0.867 -2.891,-0.867c-0.906,0 -1.762,0.175 -2.567,0.527c-0.805,0.351 -1.479,0.799 -2.023,1.343l-1.7,-2.04c0.793,-0.748 1.762,-1.338 2.907,-1.768c1.145,-0.431 2.375,-0.646 3.689,-0.646c1.156,0 2.16,0.164 3.01,0.493c0.85,0.328 1.547,0.776 2.091,1.343c0.544,0.566 0.952,1.235 1.224,2.006c0.272,0.771 0.408,1.598 0.408,2.482l0,7.039c0,0.544 0.017,1.116 0.051,1.717c0.034,0.6 0.096,1.093 0.187,1.479l-2.89,0c-0.182,-0.771 -0.272,-1.542 -0.272,-2.312l-0.102,0c-0.59,0.861 -1.332,1.53 -2.228,2.006c-0.895,0.476 -1.955,0.714 -3.179,0.714c-0.634,0 -1.298,-0.085 -1.989,-0.255c-0.691,-0.17 -1.32,-0.448 -1.887,-0.833c-0.567,-0.386 -1.037,-0.896 -1.411,-1.53c-0.374,-0.635 -0.561,-1.417 -0.561,-2.347c0,-1.224 0.328,-2.193 0.986,-2.907c0.657,-0.714 1.519,-1.258 2.584,-1.632c1.065,-0.374 2.267,-0.618 3.604,-0.731c1.338,-0.113 2.687,-0.17 4.047,-0.17l0,-0.442Zm-0.782,2.754c-0.794,0 -1.616,0.034 -2.466,0.102c-0.85,0.068 -1.62,0.204 -2.312,0.408c-0.691,0.204 -1.264,0.51 -1.717,0.918c-0.453,0.408 -0.68,0.952 -0.68,1.632c0,0.476 0.096,0.873 0.289,1.191c0.193,0.317 0.448,0.578 0.765,0.782c0.317,0.204 0.669,0.345 1.054,0.425c0.386,0.079 0.782,0.119 1.19,0.119c1.496,0 2.647,-0.448 3.452,-1.343c0.804,-0.896 1.207,-2.024 1.207,-3.384l0,-0.85l-0.782,0Z"
       style="fill-rule:nonzero;"
       id="path258" /><path
       d="M261.812,44.041l-4.284,0l0,8.398c0,0.975 0.181,1.672 0.544,2.092c0.362,0.419 0.94,0.629 1.734,0.629c0.294,0 0.612,-0.034 0.952,-0.102c0.34,-0.068 0.646,-0.17 0.918,-0.306l0.102,2.618c-0.385,0.136 -0.811,0.243 -1.275,0.323c-0.465,0.079 -0.947,0.119 -1.445,0.119c-1.519,0 -2.681,-0.42 -3.486,-1.258c-0.804,-0.839 -1.207,-2.097 -1.207,-3.775l0,-8.738l-3.094,0l0,-2.618l3.094,0l0,-4.625l3.163,0l0,4.625l4.284,0l0,2.618Z"
       style="fill-rule:nonzero;"
       id="path260" /><path
       d="M268.34,57.54l-3.196,0l0,-16.117l3.196,0l0,16.117Zm0.544,-21.932c0,0.589 -0.209,1.077 -0.629,1.462c-0.419,0.386 -0.923,0.578 -1.513,0.578c-0.589,0 -1.088,-0.198 -1.496,-0.595c-0.408,-0.396 -0.612,-0.878 -0.612,-1.445c0,-0.589 0.204,-1.082 0.612,-1.479c0.408,-0.397 0.907,-0.595 1.496,-0.595c0.59,0 1.094,0.198 1.513,0.595c0.42,0.397 0.629,0.89 0.629,1.479Z"
       style="fill-rule:nonzero;"
       id="path262" /><path
       d="M290.238,49.447c0,1.247 -0.221,2.392 -0.663,3.434c-0.442,1.043 -1.054,1.944 -1.836,2.704c-0.782,0.759 -1.706,1.348 -2.771,1.768c-1.066,0.419 -2.211,0.629 -3.435,0.629c-1.224,0 -2.368,-0.21 -3.434,-0.629c-1.065,-0.42 -1.983,-1.009 -2.754,-1.768c-0.771,-0.76 -1.377,-1.661 -1.819,-2.704c-0.442,-1.042 -0.663,-2.187 -0.663,-3.434c0,-1.247 0.221,-2.386 0.663,-3.417c0.442,-1.032 1.048,-1.921 1.819,-2.669c0.771,-0.748 1.689,-1.332 2.754,-1.751c1.066,-0.42 2.21,-0.629 3.434,-0.629c1.224,0 2.369,0.209 3.435,0.629c1.065,0.419 1.989,1.003 2.771,1.751c0.782,0.748 1.394,1.637 1.836,2.669c0.442,1.031 0.663,2.17 0.663,3.417Zm-3.332,0c0,-0.771 -0.119,-1.507 -0.357,-2.21c-0.238,-0.703 -0.584,-1.32 -1.037,-1.853c-0.454,-0.533 -1.015,-0.958 -1.683,-1.275c-0.669,-0.318 -1.434,-0.476 -2.296,-0.476c-0.861,0 -1.626,0.158 -2.295,0.476c-0.669,0.317 -1.23,0.742 -1.683,1.275c-0.453,0.533 -0.799,1.15 -1.037,1.853c-0.238,0.703 -0.357,1.439 -0.357,2.21c0,0.771 0.119,1.508 0.357,2.21c0.238,0.703 0.584,1.326 1.037,1.87c0.453,0.545 1.014,0.975 1.683,1.293c0.669,0.317 1.434,0.476 2.295,0.476c0.862,0 1.627,-0.159 2.296,-0.476c0.668,-0.318 1.229,-0.748 1.683,-1.293c0.453,-0.544 0.799,-1.167 1.037,-1.87c0.238,-0.702 0.357,-1.439 0.357,-2.21Z"
       style="fill-rule:nonzero;"
       id="path264" /><path
       d="M297.549,41.423c0.045,0.408 0.079,0.867 0.102,1.377c0.022,0.51 0.034,0.935 0.034,1.275l0.102,0c0.204,-0.431 0.481,-0.833 0.833,-1.207c0.351,-0.374 0.753,-0.703 1.207,-0.986c0.453,-0.284 0.952,-0.505 1.496,-0.663c0.544,-0.159 1.111,-0.238 1.7,-0.238c1.043,0 1.938,0.175 2.686,0.527c0.748,0.351 1.372,0.821 1.87,1.411c0.499,0.589 0.867,1.28 1.105,2.074c0.238,0.793 0.357,1.643 0.357,2.55l0,9.997l-3.196,0l0,-8.943c0,-0.657 -0.051,-1.281 -0.153,-1.87c-0.102,-0.589 -0.289,-1.111 -0.561,-1.564c-0.272,-0.454 -0.646,-0.816 -1.122,-1.088c-0.476,-0.272 -1.088,-0.408 -1.836,-0.408c-1.269,0 -2.307,0.481 -3.111,1.445c-0.805,0.963 -1.207,2.25 -1.207,3.859l0,8.569l-3.197,0l0,-12.649c0,-0.431 -0.011,-0.986 -0.034,-1.666c-0.022,-0.68 -0.056,-1.281 -0.102,-1.802l3.027,0Z"
       style="fill-rule:nonzero;"
       id="path266" /><path
       d="M330.735,57.54l-3.366,0l0,-21.116l-7.719,0l0,-2.958l18.804,0l0,2.958l-7.719,0l0,21.116Z"
       style="fill-rule:nonzero;"
       id="path268" /><path
       d="M350.015,48.053c-0.023,-0.635 -0.131,-1.23 -0.323,-1.785c-0.193,-0.555 -0.476,-1.037 -0.851,-1.445c-0.374,-0.408 -0.838,-0.731 -1.394,-0.969c-0.555,-0.238 -1.207,-0.357 -1.955,-0.357c-0.68,0 -1.32,0.119 -1.921,0.357c-0.601,0.238 -1.122,0.561 -1.564,0.969c-0.442,0.408 -0.805,0.89 -1.088,1.445c-0.283,0.555 -0.448,1.15 -0.493,1.785l9.589,0Zm3.23,1.292c0,0.182 0,0.363 0,0.544c0,0.182 -0.012,0.363 -0.034,0.544l-12.785,0c0.023,0.68 0.176,1.321 0.459,1.921c0.283,0.601 0.663,1.122 1.139,1.565c0.476,0.442 1.026,0.787 1.649,1.037c0.623,0.249 1.287,0.374 1.989,0.374c1.088,0 2.029,-0.238 2.822,-0.714c0.794,-0.476 1.417,-1.055 1.871,-1.735l2.244,1.803c-0.862,1.133 -1.876,1.966 -3.043,2.499c-1.168,0.532 -2.466,0.799 -3.894,0.799c-1.224,0 -2.357,-0.204 -3.4,-0.612c-1.043,-0.408 -1.938,-0.981 -2.686,-1.717c-0.748,-0.737 -1.338,-1.627 -1.768,-2.67c-0.431,-1.042 -0.646,-2.198 -0.646,-3.468c0,-1.247 0.209,-2.397 0.629,-3.451c0.419,-1.054 1.003,-1.955 1.751,-2.703c0.748,-0.748 1.632,-1.332 2.652,-1.751c1.02,-0.42 2.119,-0.629 3.298,-0.629c1.179,0 2.25,0.192 3.213,0.578c0.964,0.385 1.78,0.94 2.449,1.666c0.668,0.725 1.184,1.603 1.547,2.635c0.362,1.031 0.544,2.193 0.544,3.485Z"
       style="fill-rule:nonzero;"
       id="path270" /><path
       d="M368.988,45.503c-0.34,-0.522 -0.85,-0.958 -1.53,-1.309c-0.68,-0.352 -1.406,-0.527 -2.176,-0.527c-0.839,0 -1.581,0.158 -2.227,0.476c-0.646,0.317 -1.196,0.742 -1.65,1.275c-0.453,0.533 -0.799,1.15 -1.037,1.853c-0.238,0.703 -0.357,1.439 -0.357,2.21c0,0.771 0.119,1.508 0.357,2.21c0.238,0.703 0.584,1.321 1.037,1.853c0.454,0.533 1.009,0.958 1.667,1.276c0.657,0.317 1.405,0.476 2.244,0.476c0.816,0 1.558,-0.159 2.227,-0.476c0.669,-0.318 1.218,-0.748 1.649,-1.293l2.142,1.939c-0.68,0.793 -1.53,1.411 -2.55,1.853c-1.02,0.442 -2.176,0.663 -3.468,0.663c-1.247,0 -2.397,-0.204 -3.452,-0.612c-1.054,-0.408 -1.966,-0.981 -2.737,-1.717c-0.77,-0.737 -1.377,-1.627 -1.819,-2.67c-0.442,-1.042 -0.663,-2.21 -0.663,-3.502c0,-1.269 0.215,-2.425 0.646,-3.468c0.431,-1.043 1.032,-1.938 1.802,-2.686c0.771,-0.748 1.683,-1.326 2.737,-1.734c1.055,-0.408 2.194,-0.612 3.418,-0.612c1.133,0 2.261,0.226 3.383,0.68c1.122,0.453 2.012,1.11 2.669,1.972l-2.312,1.87Z"
       style="fill-rule:nonzero;"
       id="path272" /><path
       d="M377.829,43.871c0.385,-0.794 1.042,-1.474 1.972,-2.04c0.929,-0.567 1.972,-0.85 3.128,-0.85c1.043,0 1.938,0.175 2.686,0.527c0.748,0.351 1.372,0.821 1.87,1.411c0.499,0.589 0.868,1.28 1.106,2.074c0.238,0.793 0.357,1.643 0.357,2.55l0,9.997l-3.197,0l0,-8.909c0,-0.657 -0.051,-1.281 -0.153,-1.87c-0.102,-0.589 -0.289,-1.111 -0.561,-1.564c-0.272,-0.454 -0.64,-0.816 -1.105,-1.088c-0.465,-0.272 -1.071,-0.408 -1.819,-0.408c-1.269,0 -2.312,0.481 -3.128,1.445c-0.816,0.963 -1.224,2.25 -1.224,3.859l0,8.535l-3.197,0l0,-25.706l3.197,0l0,12.037l0.068,0Z"
       style="fill-rule:nonzero;"
       id="path274" /><path
       d="M397.244,41.423c0.046,0.408 0.08,0.867 0.102,1.377c0.023,0.51 0.034,0.935 0.034,1.275l0.102,0c0.204,-0.431 0.482,-0.833 0.833,-1.207c0.352,-0.374 0.754,-0.703 1.207,-0.986c0.454,-0.284 0.952,-0.505 1.496,-0.663c0.545,-0.159 1.111,-0.238 1.701,-0.238c1.042,0 1.938,0.175 2.686,0.527c0.748,0.351 1.371,0.821 1.87,1.411c0.499,0.589 0.867,1.28 1.105,2.074c0.238,0.793 0.357,1.643 0.357,2.55l0,9.997l-3.196,0l0,-8.943c0,-0.657 -0.051,-1.281 -0.153,-1.87c-0.102,-0.589 -0.289,-1.111 -0.561,-1.564c-0.272,-0.454 -0.646,-0.816 -1.122,-1.088c-0.476,-0.272 -1.088,-0.408 -1.836,-0.408c-1.27,0 -2.307,0.481 -3.112,1.445c-0.804,0.963 -1.207,2.25 -1.207,3.859l0,8.569l-3.196,0l0,-12.649c0,-0.431 -0.011,-0.986 -0.034,-1.666c-0.023,-0.68 -0.057,-1.281 -0.102,-1.802l3.026,0Z"
       style="fill-rule:nonzero;"
       id="path276" /><path
       d="M430.465,49.447c0,1.247 -0.221,2.392 -0.663,3.434c-0.442,1.043 -1.054,1.944 -1.836,2.704c-0.783,0.759 -1.706,1.348 -2.772,1.768c-1.065,0.419 -2.21,0.629 -3.434,0.629c-1.224,0 -2.369,-0.21 -3.434,-0.629c-1.066,-0.42 -1.984,-1.009 -2.754,-1.768c-0.771,-0.76 -1.378,-1.661 -1.82,-2.704c-0.442,-1.042 -0.663,-2.187 -0.663,-3.434c0,-1.247 0.221,-2.386 0.663,-3.417c0.442,-1.032 1.049,-1.921 1.82,-2.669c0.77,-0.748 1.688,-1.332 2.754,-1.751c1.065,-0.42 2.21,-0.629 3.434,-0.629c1.224,0 2.369,0.209 3.434,0.629c1.066,0.419 1.989,1.003 2.772,1.751c0.782,0.748 1.394,1.637 1.836,2.669c0.442,1.031 0.663,2.17 0.663,3.417Zm-3.333,0c0,-0.771 -0.119,-1.507 -0.357,-2.21c-0.238,-0.703 -0.583,-1.32 -1.037,-1.853c-0.453,-0.533 -1.014,-0.958 -1.683,-1.275c-0.668,-0.318 -1.434,-0.476 -2.295,-0.476c-0.861,0 -1.626,0.158 -2.295,0.476c-0.669,0.317 -1.23,0.742 -1.683,1.275c-0.454,0.533 -0.799,1.15 -1.037,1.853c-0.238,0.703 -0.357,1.439 -0.357,2.21c0,0.771 0.119,1.508 0.357,2.21c0.238,0.703 0.583,1.326 1.037,1.87c0.453,0.545 1.014,0.975 1.683,1.293c0.669,0.317 1.434,0.476 2.295,0.476c0.861,0 1.627,-0.159 2.295,-0.476c0.669,-0.318 1.23,-0.748 1.683,-1.293c0.454,-0.544 0.799,-1.167 1.037,-1.87c0.238,-0.702 0.357,-1.439 0.357,-2.21Z"
       style="fill-rule:nonzero;"
       id="path278" /><rect
       x="434.953"
       y="31.834"
       width="3.196"
       height="25.706"
       style="fill-rule:nonzero;"
       id="rect280" /><path
       d="M460.047,49.447c0,1.247 -0.221,2.392 -0.663,3.434c-0.442,1.043 -1.054,1.944 -1.836,2.704c-0.782,0.759 -1.706,1.348 -2.771,1.768c-1.066,0.419 -2.211,0.629 -3.435,0.629c-1.224,0 -2.369,-0.21 -3.434,-0.629c-1.065,-0.42 -1.983,-1.009 -2.754,-1.768c-0.771,-0.76 -1.377,-1.661 -1.819,-2.704c-0.442,-1.042 -0.663,-2.187 -0.663,-3.434c0,-1.247 0.221,-2.386 0.663,-3.417c0.442,-1.032 1.048,-1.921 1.819,-2.669c0.771,-0.748 1.689,-1.332 2.754,-1.751c1.065,-0.42 2.21,-0.629 3.434,-0.629c1.224,0 2.369,0.209 3.435,0.629c1.065,0.419 1.989,1.003 2.771,1.751c0.782,0.748 1.394,1.637 1.836,2.669c0.442,1.031 0.663,2.17 0.663,3.417Zm-3.332,0c0,-0.771 -0.119,-1.507 -0.357,-2.21c-0.238,-0.703 -0.584,-1.32 -1.037,-1.853c-0.454,-0.533 -1.015,-0.958 -1.684,-1.275c-0.668,-0.318 -1.433,-0.476 -2.295,-0.476c-0.861,0 -1.626,0.158 -2.295,0.476c-0.669,0.317 -1.23,0.742 -1.683,1.275c-0.453,0.533 -0.799,1.15 -1.037,1.853c-0.238,0.703 -0.357,1.439 -0.357,2.21c0,0.771 0.119,1.508 0.357,2.21c0.238,0.703 0.584,1.326 1.037,1.87c0.453,0.545 1.014,0.975 1.683,1.293c0.669,0.317 1.434,0.476 2.295,0.476c0.862,0 1.627,-0.159 2.295,-0.476c0.669,-0.318 1.23,-0.748 1.684,-1.293c0.453,-0.544 0.799,-1.167 1.037,-1.87c0.238,-0.702 0.357,-1.439 0.357,-2.21Z"
       style="fill-rule:nonzero;"
       id="path282" /><path
       d="M465.725,60.294c0.703,0.793 1.582,1.428 2.636,1.904c1.054,0.476 2.136,0.714 3.247,0.714c1.065,0 1.961,-0.153 2.686,-0.459c0.725,-0.306 1.309,-0.725 1.751,-1.258c0.442,-0.533 0.76,-1.162 0.952,-1.887c0.193,-0.725 0.289,-1.508 0.289,-2.346l0,-2.074l-0.068,0c-0.589,0.906 -1.394,1.598 -2.414,2.074c-1.02,0.476 -2.108,0.714 -3.264,0.714c-1.224,0 -2.341,-0.216 -3.349,-0.646c-1.009,-0.431 -1.865,-1.02 -2.568,-1.768c-0.702,-0.748 -1.246,-1.627 -1.632,-2.636c-0.385,-1.008 -0.578,-2.091 -0.578,-3.247c0,-1.156 0.193,-2.244 0.578,-3.264c0.386,-1.02 0.93,-1.91 1.632,-2.669c0.703,-0.76 1.553,-1.36 2.551,-1.802c0.997,-0.442 2.108,-0.663 3.332,-0.663c1.156,0 2.261,0.249 3.315,0.748c1.054,0.498 1.887,1.258 2.499,2.278l0.068,0l0,-2.584l3.095,0l0,15.301c0,1.178 -0.148,2.306 -0.443,3.383c-0.294,1.077 -0.793,2.029 -1.496,2.856c-0.702,0.828 -1.62,1.491 -2.754,1.989c-1.133,0.499 -2.539,0.748 -4.216,0.748c-1.406,0 -2.817,-0.255 -4.233,-0.765c-1.417,-0.51 -2.636,-1.229 -3.656,-2.159l2.04,-2.482Zm0.986,-10.983c0,0.748 0.119,1.462 0.357,2.142c0.239,0.68 0.59,1.281 1.055,1.802c0.464,0.522 1.025,0.941 1.683,1.259c0.657,0.317 1.405,0.476 2.244,0.476c0.816,0 1.564,-0.148 2.244,-0.442c0.68,-0.295 1.258,-0.697 1.734,-1.208c0.476,-0.51 0.845,-1.11 1.105,-1.802c0.261,-0.691 0.391,-1.433 0.391,-2.227c0,-0.771 -0.13,-1.496 -0.391,-2.176c-0.26,-0.68 -0.634,-1.281 -1.122,-1.802c-0.487,-0.522 -1.065,-0.935 -1.734,-1.241c-0.669,-0.306 -1.411,-0.459 -2.227,-0.459c-0.839,0 -1.587,0.153 -2.244,0.459c-0.658,0.306 -1.219,0.714 -1.683,1.224c-0.465,0.51 -0.816,1.111 -1.055,1.802c-0.238,0.691 -0.357,1.422 -0.357,2.193Z"
       style="fill-rule:nonzero;"
       id="path284" /><path
       d="M492.077,54.072l0.068,0l4.455,-12.649l3.4,0l-7.821,19.925c-0.272,0.68 -0.566,1.287 -0.884,1.819c-0.317,0.533 -0.691,0.986 -1.122,1.36c-0.43,0.374 -0.935,0.663 -1.513,0.867c-0.578,0.204 -1.264,0.306 -2.057,0.306c-0.34,0 -0.686,-0.017 -1.037,-0.051c-0.351,-0.034 -0.708,-0.096 -1.071,-0.187l0.306,-2.822c0.544,0.182 1.077,0.272 1.598,0.272c0.839,0 1.462,-0.232 1.87,-0.697c0.408,-0.465 0.782,-1.128 1.122,-1.989l1.02,-2.686l-6.902,-16.117l3.57,0l4.998,12.649Z"
       style="fill-rule:nonzero;"
       id="path286" /><path
       d="M139.42,84.052l-4.865,-7.483l-0.02,0l0,7.483l-1.423,0l0,-14.595l1.423,0l0,6.555l0.02,0l4.577,-6.555l1.67,0l-4.907,6.741l5.257,7.854l-1.732,0Z"
       style="fill-rule:nonzero;"
       id="path288" /><path
       d="M144.554,70.694c0,0.288 -0.09,0.525 -0.268,0.711c-0.179,0.186 -0.392,0.278 -0.64,0.278c-0.261,0 -0.477,-0.092 -0.649,-0.278c-0.172,-0.186 -0.258,-0.423 -0.258,-0.711c0,-0.275 0.086,-0.509 0.258,-0.701c0.172,-0.193 0.388,-0.289 0.649,-0.289c0.262,0 0.478,0.096 0.65,0.289c0.172,0.192 0.258,0.426 0.258,0.701Zm-1.588,13.358l0,-10.225l1.361,0l0,10.225l-1.361,0Z"
       style="fill-rule:nonzero;"
       id="path290" /><path
       d="M152.738,84.052l0,-6.596c0,-0.317 -0.017,-0.636 -0.052,-0.959c-0.034,-0.323 -0.11,-0.619 -0.227,-0.887c-0.116,-0.268 -0.281,-0.487 -0.494,-0.659c-0.213,-0.172 -0.492,-0.258 -0.835,-0.258c-0.344,0 -0.65,0.093 -0.918,0.278c-0.268,0.186 -0.494,0.44 -0.68,0.763c-0.185,0.323 -0.33,0.694 -0.433,1.113c-0.103,0.42 -0.154,0.856 -0.154,1.309l0,5.896l-1.361,0l0,-7.648c0,-0.22 -0.003,-0.457 -0.01,-0.711c-0.007,-0.254 -0.014,-0.502 -0.021,-0.742c-0.007,-0.241 -0.014,-0.461 -0.021,-0.66c-0.006,-0.199 -0.017,-0.354 -0.03,-0.464l1.319,0c0.027,0.261 0.048,0.577 0.062,0.949c0.013,0.371 0.02,0.721 0.02,1.051l0.042,0c0.192,-0.687 0.508,-1.247 0.948,-1.68c0.44,-0.433 0.989,-0.65 1.649,-0.65c0.55,0 0.993,0.117 1.33,0.351c0.336,0.234 0.594,0.539 0.773,0.917c0.178,0.378 0.299,0.804 0.361,1.278c0.061,0.475 0.092,0.945 0.092,1.413l0,6.596l-1.36,0Z"
       style="fill-rule:nonzero;"
       id="path292" /><path
       d="M163.623,83.908c0,0.728 -0.059,1.402 -0.176,2.02c-0.116,0.619 -0.312,1.155 -0.587,1.608c-0.275,0.454 -0.646,0.811 -1.113,1.072c-0.468,0.261 -1.052,0.392 -1.753,0.392c-0.673,0 -1.302,-0.155 -1.886,-0.464c-0.584,-0.309 -1.055,-0.725 -1.412,-1.247l0.886,-0.948c0.275,0.426 0.622,0.769 1.041,1.03c0.42,0.262 0.89,0.392 1.413,0.392c0.453,0 0.828,-0.096 1.123,-0.289c0.296,-0.192 0.526,-0.46 0.691,-0.804c0.165,-0.343 0.281,-0.749 0.35,-1.216c0.069,-0.467 0.103,-0.982 0.103,-1.546l0,-1.69l-0.041,0c-0.165,0.618 -0.44,1.133 -0.825,1.546c-0.384,0.412 -0.927,0.618 -1.628,0.618c-0.522,0 -0.983,-0.137 -1.381,-0.412c-0.399,-0.275 -0.736,-0.656 -1.011,-1.144c-0.274,-0.488 -0.484,-1.065 -0.628,-1.732c-0.145,-0.666 -0.217,-1.398 -0.217,-2.195c0,-0.798 0.069,-1.526 0.206,-2.186c0.138,-0.659 0.34,-1.226 0.608,-1.7c0.268,-0.475 0.605,-0.846 1.011,-1.114c0.405,-0.268 0.869,-0.402 1.391,-0.402c0.619,0 1.144,0.189 1.577,0.567c0.433,0.378 0.725,0.876 0.876,1.495l0.062,0l0,-1.732l1.32,0l0,10.081Zm-1.32,-4.968c0,-0.591 -0.044,-1.148 -0.134,-1.67c-0.089,-0.522 -0.227,-0.976 -0.412,-1.361c-0.186,-0.384 -0.416,-0.687 -0.691,-0.907c-0.275,-0.22 -0.591,-0.33 -0.948,-0.33c-0.371,0 -0.691,0.11 -0.959,0.33c-0.268,0.22 -0.491,0.519 -0.67,0.897c-0.178,0.378 -0.309,0.828 -0.391,1.35c-0.083,0.523 -0.124,1.086 -0.124,1.691c0,0.591 0.041,1.144 0.124,1.659c0.082,0.516 0.213,0.966 0.391,1.351c0.179,0.384 0.402,0.687 0.67,0.907c0.268,0.22 0.588,0.33 0.959,0.33c0.371,0 0.691,-0.11 0.959,-0.33c0.268,-0.22 0.494,-0.519 0.68,-0.897c0.185,-0.378 0.323,-0.825 0.412,-1.34c0.09,-0.515 0.134,-1.075 0.134,-1.68Z"
       style="fill-rule:nonzero;"
       id="path294" /><path
       d="M180.651,84.052l0,-12.678l-0.062,0l-3.587,12.678l-1.34,0l-3.567,-12.678l-0.061,0l0,12.678l-1.34,0l0,-14.595l2.144,0l3.483,12.328l0.083,0l3.443,-12.328l2.226,0l0,14.595l-1.422,0Z"
       style="fill-rule:nonzero;"
       id="path296" /><path
       d="M191.845,78.96c0,0.811 -0.083,1.547 -0.248,2.206c-0.165,0.66 -0.398,1.23 -0.701,1.711c-0.302,0.481 -0.676,0.852 -1.123,1.114c-0.447,0.261 -0.945,0.391 -1.495,0.391c-0.549,0 -1.044,-0.13 -1.484,-0.391c-0.44,-0.262 -0.814,-0.633 -1.124,-1.114c-0.309,-0.481 -0.546,-1.051 -0.711,-1.711c-0.165,-0.659 -0.247,-1.395 -0.247,-2.206c0,-0.81 0.079,-1.553 0.237,-2.226c0.158,-0.673 0.388,-1.251 0.691,-1.732c0.302,-0.481 0.676,-0.852 1.123,-1.113c0.447,-0.261 0.952,-0.392 1.515,-0.392c0.55,0 1.048,0.131 1.495,0.392c0.447,0.261 0.821,0.632 1.123,1.113c0.303,0.481 0.536,1.059 0.701,1.732c0.165,0.673 0.248,1.416 0.248,2.226Zm-1.402,-0.02c0,-0.605 -0.045,-1.168 -0.134,-1.691c-0.089,-0.522 -0.223,-0.972 -0.402,-1.35c-0.179,-0.378 -0.402,-0.677 -0.67,-0.897c-0.268,-0.22 -0.588,-0.33 -0.959,-0.33c-0.371,0 -0.694,0.11 -0.969,0.33c-0.275,0.22 -0.498,0.519 -0.67,0.897c-0.171,0.378 -0.302,0.828 -0.391,1.35c-0.09,0.523 -0.134,1.086 -0.134,1.691c0,0.605 0.044,1.161 0.134,1.67c0.089,0.508 0.22,0.955 0.391,1.34c0.172,0.384 0.395,0.683 0.67,0.896c0.275,0.213 0.598,0.32 0.969,0.32c0.371,0 0.694,-0.107 0.969,-0.32c0.275,-0.213 0.498,-0.512 0.67,-0.896c0.172,-0.385 0.303,-0.832 0.392,-1.34c0.089,-0.509 0.134,-1.065 0.134,-1.67Z"
       style="fill-rule:nonzero;"
       id="path298" /><path
       d="M199.637,84.052l0,-6.596c0,-0.317 -0.017,-0.636 -0.051,-0.959c-0.035,-0.323 -0.11,-0.619 -0.227,-0.887c-0.117,-0.268 -0.282,-0.487 -0.495,-0.659c-0.213,-0.172 -0.491,-0.258 -0.835,-0.258c-0.343,0 -0.649,0.093 -0.917,0.278c-0.268,0.186 -0.495,0.44 -0.68,0.763c-0.186,0.323 -0.33,0.694 -0.433,1.113c-0.103,0.42 -0.155,0.856 -0.155,1.309l0,5.896l-1.361,0l0,-7.648c0,-0.22 -0.003,-0.457 -0.01,-0.711c-0.007,-0.254 -0.014,-0.502 -0.02,-0.742c-0.007,-0.241 -0.014,-0.461 -0.021,-0.66c-0.007,-0.199 -0.017,-0.354 -0.031,-0.464l1.319,0c0.028,0.261 0.048,0.577 0.062,0.949c0.014,0.371 0.021,0.721 0.021,1.051l0.041,0c0.192,-0.687 0.509,-1.247 0.948,-1.68c0.44,-0.433 0.99,-0.65 1.65,-0.65c0.549,0 0.993,0.117 1.329,0.351c0.337,0.234 0.595,0.539 0.773,0.917c0.179,0.378 0.299,0.804 0.361,1.278c0.062,0.475 0.093,0.945 0.093,1.413l0,6.596l-1.361,0Z"
       style="fill-rule:nonzero;"
       id="path300" /><path
       d="M210.522,83.908c0,0.728 -0.058,1.402 -0.175,2.02c-0.117,0.619 -0.313,1.155 -0.588,1.608c-0.275,0.454 -0.646,0.811 -1.113,1.072c-0.467,0.261 -1.051,0.392 -1.752,0.392c-0.674,0 -1.302,-0.155 -1.887,-0.464c-0.584,-0.309 -1.054,-0.725 -1.412,-1.247l0.887,-0.948c0.275,0.426 0.622,0.769 1.041,1.03c0.419,0.262 0.89,0.392 1.412,0.392c0.454,0 0.828,-0.096 1.124,-0.289c0.295,-0.192 0.525,-0.46 0.69,-0.804c0.165,-0.343 0.282,-0.749 0.351,-1.216c0.068,-0.467 0.103,-0.982 0.103,-1.546l0,-1.69l-0.042,0c-0.164,0.618 -0.439,1.133 -0.824,1.546c-0.385,0.412 -0.928,0.618 -1.629,0.618c-0.522,0 -0.982,-0.137 -1.381,-0.412c-0.399,-0.275 -0.735,-0.656 -1.01,-1.144c-0.275,-0.488 -0.485,-1.065 -0.629,-1.732c-0.144,-0.666 -0.216,-1.398 -0.216,-2.195c0,-0.798 0.068,-1.526 0.206,-2.186c0.137,-0.659 0.34,-1.226 0.608,-1.7c0.268,-0.475 0.605,-0.846 1.01,-1.114c0.406,-0.268 0.869,-0.402 1.392,-0.402c0.618,0 1.144,0.189 1.577,0.567c0.433,0.378 0.725,0.876 0.876,1.495l0.062,0l0,-1.732l1.319,0l0,10.081Zm-1.319,-4.968c0,-0.591 -0.045,-1.148 -0.134,-1.67c-0.09,-0.522 -0.227,-0.976 -0.413,-1.361c-0.185,-0.384 -0.415,-0.687 -0.69,-0.907c-0.275,-0.22 -0.591,-0.33 -0.949,-0.33c-0.371,0 -0.69,0.11 -0.958,0.33c-0.268,0.22 -0.491,0.519 -0.67,0.897c-0.179,0.378 -0.309,0.828 -0.392,1.35c-0.082,0.523 -0.124,1.086 -0.124,1.691c0,0.591 0.042,1.144 0.124,1.659c0.083,0.516 0.213,0.966 0.392,1.351c0.179,0.384 0.402,0.687 0.67,0.907c0.268,0.22 0.587,0.33 0.958,0.33c0.372,0 0.691,-0.11 0.959,-0.33c0.268,-0.22 0.495,-0.519 0.68,-0.897c0.186,-0.378 0.323,-0.825 0.413,-1.34c0.089,-0.515 0.134,-1.075 0.134,-1.68Z"
       style="fill-rule:nonzero;"
       id="path302" /><path
       d="M218.603,84.052l-3.504,-5.153l-0.042,0l0,5.153l-1.36,0l0,-15.585l1.36,0l0,9.875l0.042,0l3.298,-4.515l1.629,0l-3.67,4.742l3.896,5.483l-1.649,0Z"
       style="fill-rule:nonzero;"
       id="path304" /><path
       d="M223.097,73.827l0,6.597c0,0.316 0.017,0.636 0.052,0.959c0.034,0.323 0.11,0.618 0.227,0.886c0.116,0.268 0.278,0.488 0.484,0.66c0.206,0.172 0.488,0.258 0.845,0.258c0.344,0 0.65,-0.093 0.918,-0.279c0.268,-0.185 0.494,-0.44 0.68,-0.763c0.185,-0.323 0.33,-0.694 0.433,-1.113c0.103,-0.419 0.154,-0.855 0.154,-1.309l0,-5.896l1.361,0l0,7.648c0,0.22 0.003,0.457 0.01,0.712c0.007,0.254 0.014,0.501 0.021,0.742c0.007,0.24 0.014,0.464 0.021,0.67c0.006,0.206 0.017,0.357 0.031,0.453l-1.32,0c-0.027,-0.261 -0.048,-0.577 -0.062,-0.948c-0.013,-0.371 -0.02,-0.721 -0.02,-1.051l-0.042,0c-0.192,0.687 -0.508,1.247 -0.948,1.68c-0.44,0.433 -0.989,0.649 -1.649,0.649c-0.55,0 -0.993,-0.117 -1.33,-0.35c-0.336,-0.234 -0.594,-0.54 -0.773,-0.918c-0.178,-0.378 -0.299,-0.8 -0.361,-1.267c-0.061,-0.468 -0.092,-0.942 -0.092,-1.423l0,-6.597l1.36,0Z"
       style="fill-rule:nonzero;"
       id="path306" /><path
       d="M234.827,84.052c-0.151,0.069 -0.336,0.131 -0.556,0.186c-0.22,0.055 -0.447,0.082 -0.681,0.082c-0.714,0 -1.219,-0.247 -1.515,-0.742c-0.295,-0.495 -0.443,-1.154 -0.443,-1.979l0,-6.659l-1.34,0l0,-1.113l1.319,0l0,-2.824l1.34,0l0,2.824l1.814,0l0,1.113l-1.814,0l0,6.412c0,0.618 0.09,1.068 0.268,1.35c0.179,0.282 0.447,0.423 0.804,0.423c0.124,0 0.255,-0.017 0.392,-0.052c0.137,-0.034 0.254,-0.072 0.35,-0.113l0.062,1.092Z"
       style="fill-rule:nonzero;"
       id="path308" /><rect
       x="236.724"
       y="69.457"
       width="1.196"
       height="5.092"
       style="fill-rule:nonzero;"
       id="rect310" /><path
       d="M245.052,75.6c-0.178,-0.302 -0.408,-0.546 -0.69,-0.732c-0.282,-0.185 -0.622,-0.278 -1.021,-0.278c-0.439,0 -0.8,0.161 -1.082,0.484c-0.282,0.323 -0.423,0.746 -0.423,1.268c0,0.55 0.138,0.949 0.413,1.196c0.275,0.247 0.687,0.474 1.237,0.68c0.275,0.11 0.549,0.244 0.824,0.402c0.275,0.158 0.519,0.354 0.732,0.588c0.213,0.233 0.388,0.512 0.526,0.835c0.137,0.323 0.206,0.711 0.206,1.164c0,1.004 -0.271,1.784 -0.814,2.34c-0.543,0.557 -1.248,0.835 -2.113,0.835c-0.578,0 -1.107,-0.134 -1.588,-0.402c-0.481,-0.268 -0.879,-0.629 -1.195,-1.082l0.824,-0.887c0.234,0.358 0.512,0.65 0.835,0.877c0.323,0.226 0.704,0.34 1.144,0.34c0.481,0 0.869,-0.175 1.165,-0.526c0.295,-0.35 0.443,-0.814 0.443,-1.391c0,-0.33 -0.055,-0.609 -0.165,-0.835c-0.11,-0.227 -0.254,-0.416 -0.433,-0.567c-0.178,-0.151 -0.381,-0.282 -0.608,-0.392c-0.227,-0.11 -0.464,-0.213 -0.711,-0.309c-0.261,-0.096 -0.512,-0.213 -0.752,-0.351c-0.241,-0.137 -0.457,-0.316 -0.65,-0.536c-0.192,-0.22 -0.347,-0.484 -0.464,-0.793c-0.117,-0.31 -0.175,-0.684 -0.175,-1.124c0,-0.426 0.072,-0.818 0.217,-1.175c0.144,-0.357 0.347,-0.663 0.608,-0.917c0.261,-0.255 0.56,-0.454 0.896,-0.598c0.337,-0.144 0.705,-0.217 1.103,-0.217c0.578,0 1.076,0.114 1.495,0.341c0.419,0.226 0.759,0.518 1.02,0.876l-0.804,0.886Z"
       style="fill-rule:nonzero;"
       id="path312" /><rect
       x="252.062"
       y="69.457"
       width="1.443"
       height="14.596"
       style="fill-rule:nonzero;"
       id="rect314" /><path
       d="M261.998,84.052l0,-6.596c0,-0.317 -0.017,-0.636 -0.051,-0.959c-0.035,-0.323 -0.11,-0.619 -0.227,-0.887c-0.117,-0.268 -0.282,-0.487 -0.495,-0.659c-0.213,-0.172 -0.491,-0.258 -0.835,-0.258c-0.344,0 -0.649,0.093 -0.917,0.278c-0.268,0.186 -0.495,0.44 -0.681,0.763c-0.185,0.323 -0.329,0.694 -0.433,1.113c-0.103,0.42 -0.154,0.856 -0.154,1.309l0,5.896l-1.361,0l0,-7.648c0,-0.22 -0.003,-0.457 -0.01,-0.711c-0.007,-0.254 -0.014,-0.502 -0.021,-0.742c-0.007,-0.241 -0.013,-0.461 -0.02,-0.66c-0.007,-0.199 -0.017,-0.354 -0.031,-0.464l1.319,0c0.028,0.261 0.048,0.577 0.062,0.949c0.014,0.371 0.021,0.721 0.021,1.051l0.041,0c0.192,-0.687 0.508,-1.247 0.948,-1.68c0.44,-0.433 0.99,-0.65 1.649,-0.65c0.55,0 0.993,0.117 1.33,0.351c0.337,0.234 0.594,0.539 0.773,0.917c0.179,0.378 0.299,0.804 0.361,1.278c0.062,0.475 0.093,0.945 0.093,1.413l0,6.596l-1.361,0Z"
       style="fill-rule:nonzero;"
       id="path316" /><path
       d="M270.347,75.6c-0.178,-0.302 -0.409,-0.546 -0.69,-0.732c-0.282,-0.185 -0.622,-0.278 -1.021,-0.278c-0.44,0 -0.8,0.161 -1.082,0.484c-0.282,0.323 -0.423,0.746 -0.423,1.268c0,0.55 0.138,0.949 0.413,1.196c0.274,0.247 0.687,0.474 1.236,0.68c0.275,0.11 0.55,0.244 0.825,0.402c0.275,0.158 0.519,0.354 0.732,0.588c0.213,0.233 0.388,0.512 0.526,0.835c0.137,0.323 0.206,0.711 0.206,1.164c0,1.004 -0.272,1.784 -0.815,2.34c-0.542,0.557 -1.247,0.835 -2.113,0.835c-0.577,0 -1.106,-0.134 -1.587,-0.402c-0.481,-0.268 -0.88,-0.629 -1.196,-1.082l0.825,-0.887c0.234,0.358 0.512,0.65 0.835,0.877c0.323,0.226 0.704,0.34 1.144,0.34c0.481,0 0.869,-0.175 1.165,-0.526c0.295,-0.35 0.443,-0.814 0.443,-1.391c0,-0.33 -0.055,-0.609 -0.165,-0.835c-0.11,-0.227 -0.254,-0.416 -0.433,-0.567c-0.179,-0.151 -0.381,-0.282 -0.608,-0.392c-0.227,-0.11 -0.464,-0.213 -0.711,-0.309c-0.261,-0.096 -0.512,-0.213 -0.753,-0.351c-0.24,-0.137 -0.457,-0.316 -0.649,-0.536c-0.192,-0.22 -0.347,-0.484 -0.464,-0.793c-0.117,-0.31 -0.175,-0.684 -0.175,-1.124c0,-0.426 0.072,-0.818 0.216,-1.175c0.145,-0.357 0.347,-0.663 0.608,-0.917c0.262,-0.255 0.561,-0.454 0.897,-0.598c0.337,-0.144 0.705,-0.217 1.103,-0.217c0.577,0 1.076,0.114 1.495,0.341c0.419,0.226 0.759,0.518 1.02,0.876l-0.804,0.886Z"
       style="fill-rule:nonzero;"
       id="path318" /><path
       d="M276.779,84.052c-0.151,0.069 -0.337,0.131 -0.556,0.186c-0.22,0.055 -0.447,0.082 -0.681,0.082c-0.714,0 -1.22,-0.247 -1.515,-0.742c-0.295,-0.495 -0.443,-1.154 -0.443,-1.979l0,-6.659l-1.34,0l0,-1.113l1.319,0l0,-2.824l1.34,0l0,2.824l1.814,0l0,1.113l-1.814,0l0,6.412c0,0.618 0.089,1.068 0.268,1.35c0.179,0.282 0.447,0.423 0.804,0.423c0.124,0 0.254,-0.017 0.392,-0.052c0.137,-0.034 0.254,-0.072 0.35,-0.113l0.062,1.092Z"
       style="fill-rule:nonzero;"
       id="path320" /><path
       d="M280.201,70.694c0,0.288 -0.089,0.525 -0.268,0.711c-0.178,0.186 -0.391,0.278 -0.639,0.278c-0.261,0 -0.477,-0.092 -0.649,-0.278c-0.172,-0.186 -0.258,-0.423 -0.258,-0.711c0,-0.275 0.086,-0.509 0.258,-0.701c0.172,-0.193 0.388,-0.289 0.649,-0.289c0.261,0 0.478,0.096 0.65,0.289c0.171,0.192 0.257,0.426 0.257,0.701Zm-1.587,13.358l0,-10.225l1.36,0l0,10.225l-1.36,0Z"
       style="fill-rule:nonzero;"
       id="path322" /><path
       d="M286.468,84.052c-0.151,0.069 -0.336,0.131 -0.556,0.186c-0.22,0.055 -0.447,0.082 -0.681,0.082c-0.714,0 -1.219,-0.247 -1.515,-0.742c-0.295,-0.495 -0.443,-1.154 -0.443,-1.979l0,-6.659l-1.34,0l0,-1.113l1.319,0l0,-2.824l1.34,0l0,2.824l1.814,0l0,1.113l-1.814,0l0,6.412c0,0.618 0.09,1.068 0.268,1.35c0.179,0.282 0.447,0.423 0.804,0.423c0.124,0 0.255,-0.017 0.392,-0.052c0.137,-0.034 0.254,-0.072 0.35,-0.113l0.062,1.092Z"
       style="fill-rule:nonzero;"
       id="path324" /><path
       d="M289.581,73.827l0,6.597c0,0.316 0.017,0.636 0.052,0.959c0.034,0.323 0.11,0.618 0.226,0.886c0.117,0.268 0.279,0.488 0.485,0.66c0.206,0.172 0.488,0.258 0.845,0.258c0.344,0 0.649,-0.093 0.917,-0.279c0.268,-0.185 0.495,-0.44 0.681,-0.763c0.185,-0.323 0.33,-0.694 0.433,-1.113c0.103,-0.419 0.154,-0.855 0.154,-1.309l0,-5.896l1.361,0l0,7.648c0,0.22 0.003,0.457 0.01,0.712c0.007,0.254 0.014,0.501 0.021,0.742c0.007,0.24 0.014,0.464 0.02,0.67c0.007,0.206 0.018,0.357 0.031,0.453l-1.319,0c-0.027,-0.261 -0.048,-0.577 -0.062,-0.948c-0.014,-0.371 -0.02,-0.721 -0.02,-1.051l-0.042,0c-0.192,0.687 -0.508,1.247 -0.948,1.68c-0.44,0.433 -0.989,0.649 -1.649,0.649c-0.55,0 -0.993,-0.117 -1.33,-0.35c-0.337,-0.234 -0.594,-0.54 -0.773,-0.918c-0.179,-0.378 -0.299,-0.8 -0.361,-1.267c-0.062,-0.468 -0.092,-0.942 -0.092,-1.423l0,-6.597l1.36,0Z"
       style="fill-rule:nonzero;"
       id="path326" /><path
       d="M301.311,84.052c-0.151,0.069 -0.337,0.131 -0.556,0.186c-0.22,0.055 -0.447,0.082 -0.681,0.082c-0.714,0 -1.219,-0.247 -1.515,-0.742c-0.295,-0.495 -0.443,-1.154 -0.443,-1.979l0,-6.659l-1.34,0l0,-1.113l1.319,0l0,-2.824l1.34,0l0,2.824l1.814,0l0,1.113l-1.814,0l0,6.412c0,0.618 0.09,1.068 0.268,1.35c0.179,0.282 0.447,0.423 0.804,0.423c0.124,0 0.254,-0.017 0.392,-0.052c0.137,-0.034 0.254,-0.072 0.35,-0.113l0.062,1.092Z"
       style="fill-rule:nonzero;"
       id="path328" /><path
       d="M303.909,79.228c0,0.564 0.048,1.083 0.144,1.557c0.096,0.474 0.237,0.886 0.423,1.237c0.185,0.35 0.419,0.625 0.701,0.824c0.281,0.2 0.615,0.299 0.999,0.299c0.495,0 0.894,-0.151 1.196,-0.453c0.302,-0.303 0.536,-0.667 0.701,-1.093l1.031,0.598c-0.248,0.618 -0.615,1.137 -1.103,1.556c-0.488,0.42 -1.11,0.629 -1.866,0.629c-1.141,0 -2.027,-0.481 -2.659,-1.443c-0.632,-0.962 -0.949,-2.288 -0.949,-3.979c0,-0.797 0.083,-1.532 0.248,-2.205c0.165,-0.674 0.402,-1.251 0.711,-1.732c0.309,-0.481 0.687,-0.856 1.134,-1.124c0.447,-0.268 0.945,-0.402 1.494,-0.402c0.605,0 1.117,0.131 1.536,0.392c0.419,0.261 0.76,0.619 1.021,1.072c0.261,0.454 0.45,0.983 0.567,1.587c0.117,0.605 0.175,1.251 0.175,1.938l0,0.742l-5.504,0Zm4.123,-1.133c0,-1.031 -0.158,-1.859 -0.474,-2.485c-0.317,-0.625 -0.811,-0.938 -1.485,-0.938c-0.398,0 -0.732,0.121 -1,0.361c-0.268,0.241 -0.487,0.536 -0.659,0.887c-0.172,0.35 -0.296,0.725 -0.371,1.123c-0.076,0.399 -0.114,0.749 -0.114,1.052l4.103,0Z"
       style="fill-rule:nonzero;"
       id="path330" /><path
       d="M322.194,78.96c0,0.811 -0.082,1.547 -0.247,2.206c-0.165,0.66 -0.399,1.23 -0.701,1.711c-0.302,0.481 -0.677,0.852 -1.124,1.114c-0.446,0.261 -0.944,0.391 -1.494,0.391c-0.55,0 -1.045,-0.13 -1.484,-0.391c-0.44,-0.262 -0.815,-0.633 -1.124,-1.114c-0.309,-0.481 -0.546,-1.051 -0.711,-1.711c-0.165,-0.659 -0.248,-1.395 -0.248,-2.206c0,-0.81 0.079,-1.553 0.238,-2.226c0.158,-0.673 0.388,-1.251 0.69,-1.732c0.303,-0.481 0.677,-0.852 1.124,-1.113c0.446,-0.261 0.951,-0.392 1.515,-0.392c0.55,0 1.048,0.131 1.494,0.392c0.447,0.261 0.822,0.632 1.124,1.113c0.302,0.481 0.536,1.059 0.701,1.732c0.165,0.673 0.247,1.416 0.247,2.226Zm-1.402,-0.02c0,-0.605 -0.044,-1.168 -0.134,-1.691c-0.089,-0.522 -0.223,-0.972 -0.402,-1.35c-0.178,-0.378 -0.402,-0.677 -0.67,-0.897c-0.268,-0.22 -0.587,-0.33 -0.958,-0.33c-0.371,0 -0.694,0.11 -0.969,0.33c-0.275,0.22 -0.498,0.519 -0.67,0.897c-0.172,0.378 -0.302,0.828 -0.392,1.35c-0.089,0.523 -0.134,1.086 -0.134,1.691c0,0.605 0.045,1.161 0.134,1.67c0.09,0.508 0.22,0.955 0.392,1.34c0.172,0.384 0.395,0.683 0.67,0.896c0.275,0.213 0.598,0.32 0.969,0.32c0.371,0 0.694,-0.107 0.969,-0.32c0.275,-0.213 0.498,-0.512 0.67,-0.896c0.172,-0.385 0.302,-0.832 0.391,-1.34c0.09,-0.509 0.134,-1.065 0.134,-1.67Z"
       style="fill-rule:nonzero;"
       id="path332" /><path
       d="M328.214,69.395c-0.206,-0.069 -0.405,-0.103 -0.598,-0.103c-0.275,0 -0.505,0.069 -0.691,0.206c-0.185,0.138 -0.333,0.316 -0.443,0.536c-0.11,0.22 -0.185,0.471 -0.227,0.753c-0.041,0.281 -0.061,0.573 -0.061,0.876l0,2.164l1.731,0l0,1.113l-1.731,0l0,9.112l-1.34,0l0,-9.112l-1.382,0l0,-1.113l1.382,0l0,-2.164c0,-1.045 0.209,-1.894 0.628,-2.546c0.42,-0.653 1.083,-0.98 1.99,-0.98c0.316,0 0.598,0.042 0.845,0.124l-0.103,1.134Z"
       style="fill-rule:nonzero;"
       id="path334" /><path
       d="M336.089,70.694l0,13.358l-1.423,0l0,-13.358l-2.803,0l0,-1.237l7.05,0l0,1.237l-2.824,0Z"
       style="fill-rule:nonzero;"
       id="path336" /><path
       d="M340.521,79.228c0,0.564 0.048,1.083 0.144,1.557c0.097,0.474 0.238,0.886 0.423,1.237c0.186,0.35 0.419,0.625 0.701,0.824c0.282,0.2 0.615,0.299 1,0.299c0.495,0 0.893,-0.151 1.196,-0.453c0.302,-0.303 0.536,-0.667 0.7,-1.093l1.031,0.598c-0.247,0.618 -0.615,1.137 -1.103,1.556c-0.488,0.42 -1.109,0.629 -1.865,0.629c-1.141,0 -2.028,-0.481 -2.66,-1.443c-0.632,-0.962 -0.948,-2.288 -0.948,-3.979c0,-0.797 0.082,-1.532 0.247,-2.205c0.165,-0.674 0.402,-1.251 0.712,-1.732c0.309,-0.481 0.687,-0.856 1.133,-1.124c0.447,-0.268 0.945,-0.402 1.495,-0.402c0.605,0 1.117,0.131 1.536,0.392c0.419,0.261 0.759,0.619 1.02,1.072c0.261,0.454 0.45,0.983 0.567,1.587c0.117,0.605 0.175,1.251 0.175,1.938l0,0.742l-5.504,0Zm4.123,-1.133c0,-1.031 -0.158,-1.859 -0.474,-2.485c-0.316,-0.625 -0.811,-0.938 -1.484,-0.938c-0.399,0 -0.732,0.121 -1,0.361c-0.268,0.241 -0.488,0.536 -0.66,0.887c-0.172,0.35 -0.295,0.725 -0.371,1.123c-0.075,0.399 -0.113,0.749 -0.113,1.052l4.102,0Z"
       style="fill-rule:nonzero;"
       id="path338" /><path
       d="M353.653,83.331c-0.55,0.701 -1.306,1.051 -2.268,1.051c-0.577,0 -1.085,-0.134 -1.525,-0.402c-0.44,-0.268 -0.808,-0.639 -1.103,-1.113c-0.296,-0.474 -0.519,-1.045 -0.67,-1.711c-0.151,-0.667 -0.227,-1.405 -0.227,-2.216c0,-0.811 0.076,-1.55 0.227,-2.216c0.151,-0.667 0.378,-1.241 0.68,-1.722c0.303,-0.481 0.674,-0.852 1.113,-1.113c0.44,-0.261 0.949,-0.392 1.526,-0.392c0.522,0 0.969,0.097 1.34,0.289c0.371,0.192 0.667,0.419 0.886,0.68l-0.721,0.99c-0.165,-0.234 -0.371,-0.419 -0.619,-0.557c-0.247,-0.137 -0.536,-0.206 -0.865,-0.206c-0.371,0 -0.691,0.107 -0.959,0.32c-0.268,0.213 -0.491,0.508 -0.67,0.886c-0.179,0.378 -0.313,0.825 -0.402,1.34c-0.089,0.515 -0.134,1.082 -0.134,1.701c0,0.605 0.045,1.161 0.134,1.67c0.089,0.508 0.223,0.948 0.402,1.319c0.179,0.371 0.409,0.66 0.691,0.866c0.281,0.206 0.615,0.309 0.999,0.309c0.344,0 0.643,-0.072 0.897,-0.216c0.254,-0.145 0.471,-0.347 0.65,-0.609l0.618,1.052Z"
       style="fill-rule:nonzero;"
       id="path340" /><path
       d="M360.559,84.052l0,-6.596c0,-0.317 -0.017,-0.636 -0.051,-0.959c-0.035,-0.323 -0.107,-0.619 -0.217,-0.887c-0.11,-0.268 -0.271,-0.487 -0.484,-0.659c-0.213,-0.172 -0.492,-0.258 -0.835,-0.258c-0.344,0 -0.65,0.093 -0.918,0.278c-0.268,0.186 -0.498,0.44 -0.69,0.763c-0.193,0.323 -0.34,0.694 -0.443,1.113c-0.104,0.42 -0.155,0.856 -0.155,1.309l0,5.896l-1.361,0l0,-15.585l1.361,0l0,7.298l0.041,0c0.179,-0.66 0.488,-1.202 0.928,-1.629c0.44,-0.426 0.989,-0.639 1.649,-0.639c0.55,0 0.993,0.117 1.33,0.351c0.336,0.234 0.594,0.539 0.773,0.917c0.178,0.378 0.299,0.804 0.361,1.278c0.061,0.475 0.092,0.945 0.092,1.413l0,6.596l-1.381,0Z"
       style="fill-rule:nonzero;"
       id="path342" /><path
       d="M370.269,84.052l0,-6.596c0,-0.317 -0.017,-0.636 -0.052,-0.959c-0.034,-0.323 -0.11,-0.619 -0.226,-0.887c-0.117,-0.268 -0.282,-0.487 -0.495,-0.659c-0.213,-0.172 -0.492,-0.258 -0.835,-0.258c-0.344,0 -0.65,0.093 -0.918,0.278c-0.268,0.186 -0.494,0.44 -0.68,0.763c-0.185,0.323 -0.33,0.694 -0.433,1.113c-0.103,0.42 -0.154,0.856 -0.154,1.309l0,5.896l-1.361,0l0,-7.648c0,-0.22 -0.003,-0.457 -0.01,-0.711c-0.007,-0.254 -0.014,-0.502 -0.021,-0.742c-0.007,-0.241 -0.014,-0.461 -0.02,-0.66c-0.007,-0.199 -0.018,-0.354 -0.031,-0.464l1.319,0c0.027,0.261 0.048,0.577 0.062,0.949c0.014,0.371 0.02,0.721 0.02,1.051l0.042,0c0.192,-0.687 0.508,-1.247 0.948,-1.68c0.44,-0.433 0.989,-0.65 1.649,-0.65c0.55,0 0.993,0.117 1.33,0.351c0.337,0.234 0.594,0.539 0.773,0.917c0.179,0.378 0.299,0.804 0.361,1.278c0.062,0.475 0.092,0.945 0.092,1.413l0,6.596l-1.36,0Z"
       style="fill-rule:nonzero;"
       id="path344" /><path
       d="M381.236,78.96c0,0.811 -0.082,1.547 -0.247,2.206c-0.165,0.66 -0.399,1.23 -0.701,1.711c-0.303,0.481 -0.677,0.852 -1.124,1.114c-0.446,0.261 -0.945,0.391 -1.494,0.391c-0.55,0 -1.045,-0.13 -1.485,-0.391c-0.439,-0.262 -0.814,-0.633 -1.123,-1.114c-0.309,-0.481 -0.546,-1.051 -0.711,-1.711c-0.165,-0.659 -0.248,-1.395 -0.248,-2.206c0,-0.81 0.079,-1.553 0.237,-2.226c0.158,-0.673 0.389,-1.251 0.691,-1.732c0.302,-0.481 0.677,-0.852 1.123,-1.113c0.447,-0.261 0.952,-0.392 1.516,-0.392c0.549,0 1.048,0.131 1.494,0.392c0.447,0.261 0.821,0.632 1.124,1.113c0.302,0.481 0.536,1.059 0.701,1.732c0.165,0.673 0.247,1.416 0.247,2.226Zm-1.402,-0.02c0,-0.605 -0.044,-1.168 -0.134,-1.691c-0.089,-0.522 -0.223,-0.972 -0.402,-1.35c-0.178,-0.378 -0.402,-0.677 -0.67,-0.897c-0.268,-0.22 -0.587,-0.33 -0.958,-0.33c-0.371,0 -0.694,0.11 -0.969,0.33c-0.275,0.22 -0.498,0.519 -0.67,0.897c-0.172,0.378 -0.303,0.828 -0.392,1.35c-0.089,0.523 -0.134,1.086 -0.134,1.691c0,0.605 0.045,1.161 0.134,1.67c0.089,0.508 0.22,0.955 0.392,1.34c0.172,0.384 0.395,0.683 0.67,0.896c0.275,0.213 0.598,0.32 0.969,0.32c0.371,0 0.694,-0.107 0.969,-0.32c0.274,-0.213 0.498,-0.512 0.67,-0.896c0.171,-0.385 0.302,-0.832 0.391,-1.34c0.09,-0.509 0.134,-1.065 0.134,-1.67Z"
       style="fill-rule:nonzero;"
       id="path346" /><rect
       x="383.792"
       y="68.467"
       width="1.361"
       height="15.585"
       style="fill-rule:nonzero;"
       id="rect348" /><path
       d="M394.842,78.96c0,0.811 -0.082,1.547 -0.247,2.206c-0.165,0.66 -0.399,1.23 -0.701,1.711c-0.303,0.481 -0.677,0.852 -1.124,1.114c-0.446,0.261 -0.945,0.391 -1.494,0.391c-0.55,0 -1.045,-0.13 -1.485,-0.391c-0.439,-0.262 -0.814,-0.633 -1.123,-1.114c-0.309,-0.481 -0.546,-1.051 -0.711,-1.711c-0.165,-0.659 -0.248,-1.395 -0.248,-2.206c0,-0.81 0.079,-1.553 0.237,-2.226c0.158,-0.673 0.389,-1.251 0.691,-1.732c0.302,-0.481 0.677,-0.852 1.123,-1.113c0.447,-0.261 0.952,-0.392 1.516,-0.392c0.549,0 1.048,0.131 1.494,0.392c0.447,0.261 0.821,0.632 1.124,1.113c0.302,0.481 0.536,1.059 0.701,1.732c0.165,0.673 0.247,1.416 0.247,2.226Zm-1.402,-0.02c0,-0.605 -0.044,-1.168 -0.134,-1.691c-0.089,-0.522 -0.223,-0.972 -0.402,-1.35c-0.178,-0.378 -0.402,-0.677 -0.67,-0.897c-0.268,-0.22 -0.587,-0.33 -0.958,-0.33c-0.371,0 -0.694,0.11 -0.969,0.33c-0.275,0.22 -0.498,0.519 -0.67,0.897c-0.172,0.378 -0.303,0.828 -0.392,1.35c-0.089,0.523 -0.134,1.086 -0.134,1.691c0,0.605 0.045,1.161 0.134,1.67c0.089,0.508 0.22,0.955 0.392,1.34c0.172,0.384 0.395,0.683 0.67,0.896c0.275,0.213 0.598,0.32 0.969,0.32c0.371,0 0.694,-0.107 0.969,-0.32c0.274,-0.213 0.498,-0.512 0.67,-0.896c0.171,-0.385 0.302,-0.832 0.391,-1.34c0.09,-0.509 0.134,-1.065 0.134,-1.67Z"
       style="fill-rule:nonzero;"
       id="path350" /><path
       d="M403.83,83.908c0,0.728 -0.058,1.402 -0.175,2.02c-0.117,0.619 -0.313,1.155 -0.587,1.608c-0.275,0.454 -0.646,0.811 -1.114,1.072c-0.467,0.261 -1.051,0.392 -1.752,0.392c-0.673,0 -1.302,-0.155 -1.886,-0.464c-0.584,-0.309 -1.055,-0.725 -1.412,-1.247l0.886,-0.948c0.275,0.426 0.622,0.769 1.041,1.03c0.419,0.262 0.89,0.392 1.412,0.392c0.454,0 0.828,-0.096 1.124,-0.289c0.295,-0.192 0.525,-0.46 0.69,-0.804c0.165,-0.343 0.282,-0.749 0.351,-1.216c0.069,-0.467 0.103,-0.982 0.103,-1.546l0,-1.69l-0.041,0c-0.165,0.618 -0.44,1.133 -0.825,1.546c-0.385,0.412 -0.928,0.618 -1.628,0.618c-0.523,0 -0.983,-0.137 -1.382,-0.412c-0.398,-0.275 -0.735,-0.656 -1.01,-1.144c-0.275,-0.488 -0.484,-1.065 -0.629,-1.732c-0.144,-0.666 -0.216,-1.398 -0.216,-2.195c0,-0.798 0.069,-1.526 0.206,-2.186c0.138,-0.659 0.34,-1.226 0.608,-1.7c0.268,-0.475 0.605,-0.846 1.01,-1.114c0.406,-0.268 0.87,-0.402 1.392,-0.402c0.618,0 1.144,0.189 1.577,0.567c0.433,0.378 0.725,0.876 0.876,1.495l0.062,0l0,-1.732l1.319,0l0,10.081Zm-1.319,-4.968c0,-0.591 -0.045,-1.148 -0.134,-1.67c-0.089,-0.522 -0.227,-0.976 -0.412,-1.361c-0.186,-0.384 -0.416,-0.687 -0.691,-0.907c-0.275,-0.22 -0.591,-0.33 -0.948,-0.33c-0.371,0 -0.691,0.11 -0.959,0.33c-0.268,0.22 -0.491,0.519 -0.67,0.897c-0.179,0.378 -0.309,0.828 -0.392,1.35c-0.082,0.523 -0.123,1.086 -0.123,1.691c0,0.591 0.041,1.144 0.123,1.659c0.083,0.516 0.213,0.966 0.392,1.351c0.179,0.384 0.402,0.687 0.67,0.907c0.268,0.22 0.588,0.33 0.959,0.33c0.371,0 0.69,-0.11 0.958,-0.33c0.268,-0.22 0.495,-0.519 0.681,-0.897c0.185,-0.378 0.323,-0.825 0.412,-1.34c0.089,-0.515 0.134,-1.075 0.134,-1.68Z"
       style="fill-rule:nonzero;"
       id="path352" /><path
       d="M409.582,86.217c-0.11,0.44 -0.237,0.831 -0.381,1.175c-0.145,0.344 -0.32,0.632 -0.526,0.866c-0.206,0.233 -0.443,0.416 -0.711,0.546c-0.268,0.131 -0.588,0.196 -0.959,0.196c-0.192,0 -0.385,-0.017 -0.577,-0.052c-0.193,-0.034 -0.351,-0.072 -0.474,-0.113l0.185,-1.216c0.096,0.027 0.213,0.055 0.351,0.082c0.137,0.028 0.275,0.041 0.412,0.041c0.399,0 0.697,-0.137 0.897,-0.412c0.199,-0.275 0.36,-0.653 0.484,-1.134l0.454,-1.773l-2.969,-10.596l1.443,0l2.206,8.638l0.041,0l1.959,-8.638l1.381,0l-3.216,12.39Z"
       style="fill-rule:nonzero;"
       id="path354" /><path
       d="M418.632,84.052l0,-14.595l1.443,0l0,13.255l4.164,0l0,1.34l-5.607,0Z"
       style="fill-rule:nonzero;"
       id="path356" /><path
       d="M430.197,84.052c-0.014,-0.11 -0.024,-0.247 -0.031,-0.412c-0.007,-0.165 -0.014,-0.34 -0.02,-0.526c-0.007,-0.185 -0.011,-0.364 -0.011,-0.536c0,-0.171 0,-0.319 0,-0.443l-0.041,0c-0.344,1.457 -1.168,2.185 -2.474,2.185c-0.288,0 -0.577,-0.055 -0.866,-0.165c-0.288,-0.11 -0.549,-0.288 -0.783,-0.536c-0.234,-0.247 -0.426,-0.56 -0.577,-0.938c-0.151,-0.377 -0.227,-0.834 -0.227,-1.37c0,-0.743 0.131,-1.34 0.392,-1.794c0.261,-0.454 0.591,-0.811 0.989,-1.072c0.399,-0.261 0.835,-0.436 1.309,-0.526c0.474,-0.089 0.925,-0.134 1.351,-0.134l0.804,0l0,-0.536c0,-0.893 -0.165,-1.546 -0.495,-1.958c-0.33,-0.412 -0.777,-0.619 -1.34,-0.619c-0.385,0 -0.742,0.104 -1.072,0.31c-0.33,0.206 -0.612,0.467 -0.845,0.783l-0.722,-0.845c0.316,-0.454 0.728,-0.804 1.237,-1.052c0.508,-0.247 1.017,-0.371 1.525,-0.371c1.072,0 1.835,0.351 2.289,1.052c0.453,0.701 0.68,1.725 0.68,3.071l0,4.247c0,0.138 0.004,0.309 0.01,0.516c0.007,0.206 0.014,0.415 0.021,0.628c0.007,0.213 0.017,0.413 0.031,0.598c0.014,0.186 0.027,0.333 0.041,0.443l-1.175,0Zm-0.165,-5.195l-0.824,0c-0.33,0 -0.66,0.031 -0.99,0.093c-0.33,0.062 -0.622,0.179 -0.876,0.351c-0.254,0.171 -0.464,0.408 -0.629,0.711c-0.165,0.302 -0.247,0.694 -0.247,1.175c0,0.715 0.158,1.23 0.474,1.546c0.316,0.316 0.66,0.474 1.031,0.474c0.384,0 0.711,-0.117 0.979,-0.35c0.268,-0.234 0.481,-0.529 0.639,-0.887c0.158,-0.357 0.271,-0.749 0.34,-1.175c0.069,-0.426 0.103,-0.838 0.103,-1.237l0,-0.701Z"
       style="fill-rule:nonzero;"
       id="path358" /><path
       d="M439.35,84.052l0,-1.834l-0.041,0c-0.165,0.618 -0.44,1.133 -0.825,1.546c-0.384,0.412 -0.927,0.618 -1.628,0.618c-0.522,0 -0.983,-0.137 -1.381,-0.412c-0.399,-0.275 -0.736,-0.656 -1.011,-1.144c-0.274,-0.488 -0.484,-1.065 -0.628,-1.732c-0.145,-0.666 -0.217,-1.398 -0.217,-2.195c0,-0.798 0.069,-1.526 0.206,-2.186c0.138,-0.659 0.341,-1.226 0.609,-1.7c0.268,-0.475 0.604,-0.846 1.01,-1.114c0.405,-0.268 0.869,-0.402 1.391,-0.402c0.619,0 1.141,0.189 1.567,0.567c0.426,0.378 0.715,0.876 0.866,1.495l0.041,0l0,-7.092l1.361,0l0,15.585l-1.32,0Zm0,-5.112c0,-0.605 -0.044,-1.168 -0.134,-1.691c-0.089,-0.522 -0.227,-0.972 -0.412,-1.35c-0.186,-0.378 -0.416,-0.677 -0.691,-0.897c-0.275,-0.22 -0.591,-0.33 -0.948,-0.33c-0.371,0 -0.691,0.11 -0.959,0.33c-0.268,0.22 -0.491,0.519 -0.67,0.897c-0.178,0.378 -0.309,0.828 -0.391,1.35c-0.083,0.523 -0.124,1.086 -0.124,1.691c0,0.591 0.041,1.144 0.124,1.659c0.082,0.516 0.213,0.966 0.391,1.351c0.179,0.384 0.402,0.687 0.67,0.907c0.268,0.22 0.588,0.33 0.959,0.33c0.371,0 0.691,-0.11 0.959,-0.33c0.268,-0.22 0.494,-0.523 0.68,-0.907c0.185,-0.385 0.323,-0.835 0.412,-1.351c0.09,-0.515 0.134,-1.068 0.134,-1.659Z"
       style="fill-rule:nonzero;"
       id="path360" /><path
       d="M448.751,84.052l-3.505,-5.153l-0.041,0l0,5.153l-1.361,0l0,-15.585l1.361,0l0,9.875l0.041,0l3.299,-4.515l1.628,0l-3.669,4.742l3.896,5.483l-1.649,0Z"
       style="fill-rule:nonzero;"
       id="path362" /><path
       d="M453.533,76.054c0.193,-0.894 0.488,-1.54 0.887,-1.938c0.398,-0.399 0.852,-0.598 1.36,-0.598c0.11,0 0.193,0.007 0.248,0.021l-0.041,1.401c-0.055,-0.013 -0.107,-0.024 -0.155,-0.03c-0.048,-0.007 -0.106,-0.011 -0.175,-0.011c-0.344,0 -0.65,0.117 -0.918,0.351c-0.268,0.233 -0.491,0.536 -0.67,0.907c-0.178,0.371 -0.312,0.793 -0.402,1.268c-0.089,0.474 -0.134,0.944 -0.134,1.412l0,5.215l-1.36,0l0,-7.648c0,-0.22 -0.004,-0.457 -0.01,-0.711c-0.007,-0.254 -0.014,-0.502 -0.021,-0.742c-0.007,-0.241 -0.014,-0.461 -0.021,-0.66c-0.007,-0.199 -0.017,-0.354 -0.031,-0.464l1.32,0c0.027,0.261 0.048,0.588 0.062,0.979c0.013,0.392 0.02,0.808 0.02,1.248l0.041,0Z"
       style="fill-rule:nonzero;"
       id="path364" /><path
       d="M461.903,84.052c-0.014,-0.11 -0.024,-0.247 -0.031,-0.412c-0.007,-0.165 -0.013,-0.34 -0.02,-0.526c-0.007,-0.185 -0.011,-0.364 -0.011,-0.536c0,-0.171 0,-0.319 0,-0.443l-0.041,0c-0.343,1.457 -1.168,2.185 -2.474,2.185c-0.288,0 -0.577,-0.055 -0.866,-0.165c-0.288,-0.11 -0.549,-0.288 -0.783,-0.536c-0.234,-0.247 -0.426,-0.56 -0.577,-0.938c-0.151,-0.377 -0.227,-0.834 -0.227,-1.37c0,-0.743 0.131,-1.34 0.392,-1.794c0.261,-0.454 0.591,-0.811 0.989,-1.072c0.399,-0.261 0.835,-0.436 1.309,-0.526c0.475,-0.089 0.925,-0.134 1.351,-0.134l0.804,0l0,-0.536c0,-0.893 -0.165,-1.546 -0.495,-1.958c-0.33,-0.412 -0.777,-0.619 -1.34,-0.619c-0.385,0 -0.742,0.104 -1.072,0.31c-0.33,0.206 -0.612,0.467 -0.845,0.783l-0.722,-0.845c0.316,-0.454 0.729,-0.804 1.237,-1.052c0.509,-0.247 1.017,-0.371 1.526,-0.371c1.072,0 1.834,0.351 2.288,1.052c0.453,0.701 0.68,1.725 0.68,3.071l0,4.247c0,0.138 0.004,0.309 0.01,0.516c0.007,0.206 0.014,0.415 0.021,0.628c0.007,0.213 0.017,0.413 0.031,0.598c0.014,0.186 0.028,0.333 0.041,0.443l-1.175,0Zm-0.165,-5.195l-0.824,0c-0.33,0 -0.66,0.031 -0.99,0.093c-0.33,0.062 -0.622,0.179 -0.876,0.351c-0.254,0.171 -0.464,0.408 -0.629,0.711c-0.165,0.302 -0.247,0.694 -0.247,1.175c0,0.715 0.158,1.23 0.474,1.546c0.316,0.316 0.66,0.474 1.031,0.474c0.385,0 0.711,-0.117 0.979,-0.35c0.268,-0.234 0.481,-0.529 0.639,-0.887c0.158,-0.357 0.271,-0.749 0.34,-1.175c0.069,-0.426 0.103,-0.838 0.103,-1.237l0,-0.701Z"
       style="fill-rule:nonzero;"
       id="path366" /><path
       d="M472.994,78.899c0,0.797 -0.072,1.529 -0.216,2.195c-0.145,0.667 -0.354,1.244 -0.629,1.732c-0.275,0.488 -0.612,0.869 -1.01,1.144c-0.399,0.275 -0.859,0.412 -1.381,0.412c-0.701,0 -1.244,-0.203 -1.629,-0.608c-0.385,-0.405 -0.66,-0.924 -0.825,-1.556l-0.041,0l0,1.834l-1.319,0l0,-15.585l1.36,0l0,7.113l0.021,0c0.165,-0.619 0.457,-1.121 0.876,-1.505c0.419,-0.385 0.938,-0.578 1.557,-0.578c0.522,0 0.986,0.134 1.391,0.402c0.406,0.268 0.746,0.639 1.021,1.114c0.274,0.474 0.481,1.041 0.618,1.7c0.137,0.66 0.206,1.388 0.206,2.186Zm-1.402,0.041c0,-0.591 -0.041,-1.148 -0.123,-1.67c-0.083,-0.522 -0.213,-0.976 -0.392,-1.361c-0.179,-0.384 -0.402,-0.687 -0.67,-0.907c-0.268,-0.22 -0.588,-0.33 -0.959,-0.33c-0.357,0 -0.673,0.11 -0.948,0.33c-0.275,0.22 -0.505,0.523 -0.691,0.907c-0.185,0.385 -0.323,0.839 -0.412,1.361c-0.089,0.522 -0.134,1.079 -0.134,1.67c0,0.605 0.045,1.165 0.134,1.68c0.089,0.515 0.227,0.962 0.412,1.34c0.186,0.378 0.413,0.677 0.681,0.897c0.268,0.22 0.587,0.33 0.958,0.33c0.371,0 0.691,-0.11 0.959,-0.33c0.268,-0.22 0.491,-0.519 0.67,-0.897c0.179,-0.378 0.309,-0.825 0.392,-1.34c0.082,-0.515 0.123,-1.075 0.123,-1.68Z"
       style="fill-rule:nonzero;"
       id="path368" /><path
       d="M479.838,84.052c-0.013,-0.11 -0.024,-0.247 -0.031,-0.412c-0.006,-0.165 -0.013,-0.34 -0.02,-0.526c-0.007,-0.185 -0.01,-0.364 -0.01,-0.536c0,-0.171 0,-0.319 0,-0.443l-0.042,0c-0.343,1.457 -1.168,2.185 -2.474,2.185c-0.288,0 -0.577,-0.055 -0.865,-0.165c-0.289,-0.11 -0.55,-0.288 -0.784,-0.536c-0.233,-0.247 -0.426,-0.56 -0.577,-0.938c-0.151,-0.377 -0.227,-0.834 -0.227,-1.37c0,-0.743 0.131,-1.34 0.392,-1.794c0.261,-0.454 0.591,-0.811 0.989,-1.072c0.399,-0.261 0.835,-0.436 1.31,-0.526c0.474,-0.089 0.924,-0.134 1.35,-0.134l0.804,0l0,-0.536c0,-0.893 -0.165,-1.546 -0.495,-1.958c-0.33,-0.412 -0.776,-0.619 -1.34,-0.619c-0.385,0 -0.742,0.104 -1.072,0.31c-0.33,0.206 -0.611,0.467 -0.845,0.783l-0.722,-0.845c0.316,-0.454 0.729,-0.804 1.237,-1.052c0.509,-0.247 1.017,-0.371 1.526,-0.371c1.072,0 1.835,0.351 2.288,1.052c0.454,0.701 0.68,1.725 0.68,3.071l0,4.247c0,0.138 0.004,0.309 0.011,0.516c0.007,0.206 0.013,0.415 0.02,0.628c0.007,0.213 0.017,0.413 0.031,0.598c0.014,0.186 0.028,0.333 0.041,0.443l-1.175,0Zm-0.165,-5.195l-0.824,0c-0.33,0 -0.66,0.031 -0.99,0.093c-0.33,0.062 -0.622,0.179 -0.876,0.351c-0.254,0.171 -0.464,0.408 -0.629,0.711c-0.165,0.302 -0.247,0.694 -0.247,1.175c0,0.715 0.158,1.23 0.474,1.546c0.316,0.316 0.66,0.474 1.031,0.474c0.385,0 0.711,-0.117 0.979,-0.35c0.268,-0.234 0.481,-0.529 0.639,-0.887c0.158,-0.357 0.272,-0.749 0.34,-1.175c0.069,-0.426 0.103,-0.838 0.103,-1.237l0,-0.701Z"
       style="fill-rule:nonzero;"
       id="path370" /><path
       d="M489.115,84.052l0,-6.596c0,-0.317 -0.017,-0.636 -0.051,-0.959c-0.035,-0.323 -0.11,-0.619 -0.227,-0.887c-0.117,-0.268 -0.282,-0.487 -0.495,-0.659c-0.213,-0.172 -0.491,-0.258 -0.835,-0.258c-0.343,0 -0.649,0.093 -0.917,0.278c-0.268,0.186 -0.495,0.44 -0.68,0.763c-0.186,0.323 -0.33,0.694 -0.433,1.113c-0.103,0.42 -0.155,0.856 -0.155,1.309l0,5.896l-1.361,0l0,-7.648c0,-0.22 -0.003,-0.457 -0.01,-0.711c-0.007,-0.254 -0.014,-0.502 -0.021,-0.742c-0.006,-0.241 -0.013,-0.461 -0.02,-0.66c-0.007,-0.199 -0.017,-0.354 -0.031,-0.464l1.319,0c0.028,0.261 0.048,0.577 0.062,0.949c0.014,0.371 0.021,0.721 0.021,1.051l0.041,0c0.192,-0.687 0.509,-1.247 0.948,-1.68c0.44,-0.433 0.99,-0.65 1.65,-0.65c0.549,0 0.992,0.117 1.329,0.351c0.337,0.234 0.595,0.539 0.773,0.917c0.179,0.378 0.299,0.804 0.361,1.278c0.062,0.475 0.093,0.945 0.093,1.413l0,6.596l-1.361,0Z"
       style="fill-rule:nonzero;"
       id="path372" /><path
       d="M500,83.908c0,0.728 -0.058,1.402 -0.175,2.02c-0.117,0.619 -0.313,1.155 -0.588,1.608c-0.275,0.454 -0.646,0.811 -1.113,1.072c-0.467,0.261 -1.051,0.392 -1.752,0.392c-0.674,0 -1.302,-0.155 -1.887,-0.464c-0.584,-0.309 -1.054,-0.725 -1.412,-1.247l0.887,-0.948c0.275,0.426 0.622,0.769 1.041,1.03c0.419,0.262 0.89,0.392 1.412,0.392c0.453,0 0.828,-0.096 1.123,-0.289c0.296,-0.192 0.526,-0.46 0.691,-0.804c0.165,-0.343 0.282,-0.749 0.351,-1.216c0.068,-0.467 0.103,-0.982 0.103,-1.546l0,-1.69l-0.042,0c-0.165,0.618 -0.439,1.133 -0.824,1.546c-0.385,0.412 -0.928,0.618 -1.629,0.618c-0.522,0 -0.982,-0.137 -1.381,-0.412c-0.399,-0.275 -0.735,-0.656 -1.01,-1.144c-0.275,-0.488 -0.485,-1.065 -0.629,-1.732c-0.144,-0.666 -0.216,-1.398 -0.216,-2.195c0,-0.798 0.068,-1.526 0.206,-2.186c0.137,-0.659 0.34,-1.226 0.608,-1.7c0.268,-0.475 0.605,-0.846 1.01,-1.114c0.405,-0.268 0.869,-0.402 1.392,-0.402c0.618,0 1.144,0.189 1.577,0.567c0.433,0.378 0.725,0.876 0.876,1.495l0.062,0l0,-1.732l1.319,0l0,10.081Zm-1.319,-4.968c0,-0.591 -0.045,-1.148 -0.134,-1.67c-0.09,-0.522 -0.227,-0.976 -0.413,-1.361c-0.185,-0.384 -0.415,-0.687 -0.69,-0.907c-0.275,-0.22 -0.591,-0.33 -0.949,-0.33c-0.371,0 -0.69,0.11 -0.958,0.33c-0.268,0.22 -0.492,0.519 -0.67,0.897c-0.179,0.378 -0.309,0.828 -0.392,1.35c-0.082,0.523 -0.124,1.086 -0.124,1.691c0,0.591 0.042,1.144 0.124,1.659c0.083,0.516 0.213,0.966 0.392,1.351c0.178,0.384 0.402,0.687 0.67,0.907c0.268,0.22 0.587,0.33 0.958,0.33c0.371,0 0.691,-0.11 0.959,-0.33c0.268,-0.22 0.495,-0.519 0.68,-0.897c0.186,-0.378 0.323,-0.825 0.413,-1.34c0.089,-0.515 0.134,-1.075 0.134,-1.68Z"
       style="fill-rule:nonzero;"
       id="path374" /><text
       xml:space="preserve"
       style="font-size:24px;fill:#000000"
       x="131.16792"
       y="24.881721"
       id="text510"><tspan
         sodipodi:role="line"
         id="tspan508"
         x="131.16792"
         y="24.881721"
         style="font-style:normal;font-variant:normal;font-weight:500;font-stretch:normal;font-size:24px;font-family:Avenir;-inkscape-font-specification:'Avenir Medium'">School of</tspan></text></g></svg>
